<svg width="516" height="31" viewBox="0 0 516 31" fill="none" xmlns="http://www.w3.org/2000/svg">
<line x1="338" y1="18" x2="516" y2="18" stroke="#D3B46D" stroke-width="2"/>
<line y1="18" x2="178" y2="18" stroke="#D3B46D" stroke-width="2"/>
<path d="M239.302 30.4243C239.225 30.3733 239.199 30.1758 239.218 29.7681L239.244 29.1821L239.545 29.1184C239.711 29.0865 240.063 29.0164 240.332 28.9655C241.157 28.8126 241.637 28.3603 241.906 27.4876C242.123 26.7741 242.219 24.4872 242.226 19.9006C242.232 14.2885 242.117 12.9634 241.541 12.2118C241.234 11.8041 241.01 11.6894 240.261 11.5492C239.89 11.4792 239.5 11.4027 239.398 11.3773C239.225 11.3454 239.206 11.2881 239.206 10.8676C239.206 10.4472 239.231 10.3899 239.398 10.3198C239.654 10.2179 248.132 8.52975 248.401 8.52975H248.612L248.567 9.78469C248.548 10.4727 248.509 11.4792 248.49 12.0206L248.452 13.0017L248.759 12.4538C249.744 10.6893 250.845 9.59358 252.31 8.92471C253.116 8.55523 253.654 8.44694 254.646 8.44694C255.823 8.44694 257 8.82915 257 9.21137C257 9.46618 254.921 14.9318 254.806 14.9764C254.748 14.9955 254.345 14.8427 253.903 14.6324C252.988 14.1929 252.125 13.9763 251.293 13.9827C250.25 13.9827 249.092 14.3649 248.631 14.8554C248.439 15.0656 248.433 15.0784 248.388 18.2061C248.337 21.3021 248.445 25.086 248.618 26.6085C248.765 27.9017 249.111 28.5387 249.827 28.8381C250.064 28.94 251.574 29.1439 252.061 29.1439C252.099 29.1439 252.118 29.4433 252.105 29.8064L252.08 30.4689L245.745 30.488C242.264 30.5007 239.366 30.4752 239.302 30.437M197.122 30.4561C197.051 30.4306 197.013 30.2141 197.013 29.8255C197.013 29.1184 196.968 29.1502 198.337 28.8954C199.387 28.7043 199.764 28.5005 200.231 27.8953C201.134 26.7168 201.326 24.4554 201.326 15.1357C201.326 6.38298 201.159 4.54198 200.225 3.19149C199.809 2.59269 199.118 2.26144 197.947 2.12766L197.051 2.01937L197.026 1.31864L197 0.617913L197.282 0.566951C197.435 0.54147 202.874 0.52873 209.369 0.541471L221.174 0.566951L221.232 0.904574C221.264 1.08931 221.309 3.01312 221.341 5.17901L221.398 9.10944L220.79 9.29418C219.875 9.5681 219.882 9.57447 219.466 8.49153C218.455 5.8224 217.29 4.28717 215.703 3.51C214.609 2.9749 214.104 2.9112 211.007 2.9112H208.313L208.268 3.35712C208.178 4.19799 208.044 9.58721 208.044 12.1289V14.6643H208.838C209.273 14.6579 210.13 14.6261 210.744 14.5879C211.666 14.5305 211.941 14.4859 212.325 14.3076C213.272 13.868 213.918 12.9061 214.315 11.339L214.52 10.53L215.217 10.5045L215.914 10.479V20.716L215.217 20.6905L214.52 20.6651L214.321 19.856C213.95 18.3336 213.233 17.2442 212.344 16.8557C211.935 16.6773 210.924 16.5754 208.966 16.5117L208.044 16.4862V18.41C208.044 20.5058 208.159 23.3406 208.306 24.8758C208.511 27.0226 209.062 28.2074 210.053 28.6342C210.239 28.717 210.84 28.8508 211.378 28.9273C211.922 29.0101 212.427 29.1056 212.51 29.1502C212.722 29.2585 212.734 30.3669 212.523 30.4498C212.363 30.5135 197.262 30.5071 197.109 30.4498M305.029 30.9594C303.506 30.7937 301.081 30.265 300.268 29.921L299.872 29.749L299.82 27.8061C299.788 26.7359 299.756 25.3026 299.744 24.6274L299.724 23.3915L299.961 23.2769C300.089 23.2132 300.351 23.1558 300.543 23.1495L300.889 23.1303L301.183 23.8566C302.335 26.6786 303.692 28.2074 305.451 28.6661C306.123 28.8445 307.39 28.8445 307.889 28.6661C309.284 28.1756 310.052 27.1245 310.058 25.6848C310.065 23.984 309.124 23.1622 305.573 21.7799C303.372 20.9262 302.604 20.4803 301.689 19.5503C300.703 18.5438 300.23 17.4035 300.14 15.8046C300.031 13.8808 300.639 12.2563 301.977 10.874C303.327 9.48529 305.08 8.72723 307.467 8.51064C309.572 8.31953 312.797 8.76545 314.486 9.47892L314.793 9.61269L314.851 11.3454C314.883 12.3009 314.915 13.575 314.921 14.1865L314.934 15.2949L314.518 15.4478C313.865 15.6899 313.821 15.6581 313.456 14.6961C312.432 12.0015 311.248 10.7275 309.399 10.3389C308.273 10.1032 307.332 10.358 306.648 11.0842C306.117 11.6512 305.905 12.1544 305.854 13.0017C305.797 13.919 305.963 14.4159 306.526 15.0274C307.224 15.7855 308.356 16.4352 310.621 17.378C313.398 18.531 314.723 19.512 315.439 20.9454C315.907 21.8754 316.041 22.6207 315.99 24.0477C315.958 25.1179 315.919 25.3408 315.676 26.0607C314.876 28.4113 313.072 29.9592 310.282 30.6791C309.335 30.9275 309.201 30.9339 307.326 30.9594C306.245 30.9721 305.202 30.9594 305.016 30.9466L305.029 30.9594ZM290.6 16.9894L292.091 16.9385L292.04 15.8874C291.848 12.1735 290.939 10.1478 289.454 10.1478C287.848 10.1478 286.562 12.2054 286.025 15.6389C285.961 16.0594 285.903 16.5626 285.903 16.7474V17.0914L287.509 17.0659C288.392 17.0531 289.781 17.0149 290.606 16.9894M287.919 30.8766C283.676 30.1121 280.637 27.1181 279.645 22.7099C279.517 22.143 279.46 21.5059 279.428 20.2828C279.377 18.3399 279.537 17.1359 280.042 15.6389C281.008 12.766 282.742 10.7275 285.257 9.5044C287.912 8.21761 291.54 8.12843 293.889 9.30055C296.538 10.6192 298.093 13.2565 298.489 17.085C298.541 17.601 298.573 18.2125 298.56 18.4482L298.534 18.875L292.199 18.8941L285.865 18.9132L285.89 19.6586C285.948 21.3849 286.319 22.9074 287.01 24.2388C287.324 24.8439 287.573 25.1688 288.181 25.7804C289.55 27.1563 290.913 27.6851 293.057 27.6851C294.612 27.6851 295.732 27.3729 296.909 26.6212C297.235 26.411 297.568 26.239 297.645 26.239C297.824 26.239 298.233 26.7678 298.233 26.9971C298.233 27.3729 297.005 28.5833 295.808 29.3859C294.829 30.0484 293.274 30.6409 291.924 30.8766C290.984 31.0422 288.859 31.0358 287.925 30.8702M266.758 29.2203C267.379 29.1056 267.865 28.8572 268.384 28.3922C269.683 27.2264 270.662 24.8248 271.045 21.8563C271.199 20.646 271.18 17.8813 271.007 16.8684C270.54 14.1356 269.529 12.3328 268.057 11.6129C267.449 11.3135 267.353 11.2881 266.63 11.2881C266.112 11.2881 265.671 11.3454 265.287 11.4537L264.717 11.6193L264.672 14.7344C264.621 18.7221 264.749 28.7043 264.858 28.991C264.928 29.1757 265.005 29.2139 265.351 29.2394C266.163 29.3031 266.298 29.3031 266.752 29.2139M263.322 30.9084C262.471 30.8256 259.88 30.3924 258.971 30.1886L258.344 30.0484L258.395 26.7168C258.51 18.6903 258.53 14.3139 258.453 10.0522C258.382 5.87973 258.357 5.44019 258.197 4.82227C257.992 4.03873 257.698 3.49726 257.34 3.24245C257.199 3.1469 256.828 3.00675 256.508 2.93668C255.446 2.70098 255.503 2.73283 255.471 2.25507C255.452 1.97477 255.484 1.79004 255.554 1.73271C255.657 1.65626 264.397 0 264.672 0C264.749 0 264.762 1.11479 264.724 4.94331C264.698 7.6634 264.692 9.88024 264.717 9.88024C264.743 9.88024 265.063 9.7401 265.427 9.57447C266.528 9.06485 267.545 8.84826 269.023 8.7973C270.009 8.76545 270.463 8.78456 270.969 8.88649C274.264 9.5681 276.702 12.25 277.559 16.1422C277.783 17.1551 277.866 19.6777 277.713 20.939C277.585 22.0156 277.227 23.468 276.855 24.4044C275.448 27.959 272.421 30.2714 268.409 30.8766C267.488 31.0167 264.583 31.0294 263.341 30.9084H263.322ZM229.678 29.2585C230.286 29.0802 231.028 28.3794 231.431 27.6214C232.257 26.0543 232.621 23.7355 232.628 20.0599C232.641 15.4478 231.918 12.5175 230.382 10.9823C229.736 10.3389 229.281 10.1351 228.456 10.1414C226.632 10.1414 225.474 12.0398 225.013 15.7791C224.802 17.4991 224.802 21.5887 225.013 23.0921C225.666 27.7424 227.336 29.9592 229.678 29.2649M226.575 30.9212C224.502 30.6217 222.684 29.749 221.302 28.3794C220.144 27.2392 219.395 25.9842 218.845 24.2706C217.981 21.5887 217.981 18.1424 218.845 15.5115C219.677 12.9698 221.558 10.753 223.862 9.59995C227.048 8.00739 231.54 8.10932 234.49 9.83565C237.145 11.3964 238.758 14.161 239.206 17.9386C239.34 19.0916 239.25 21.5314 239.039 22.5379C238.156 26.6595 235.59 29.5324 231.828 30.6154C231.425 30.73 230.798 30.8702 230.433 30.9212C229.665 31.0294 227.323 31.0231 226.581 30.9212" fill="url(#paint0_linear_10_58)"/>
<defs>
<linearGradient id="paint0_linear_10_58" x1="197" y1="15.5" x2="316" y2="15.5" gradientUnits="userSpaceOnUse">
<stop stop-color="#E2CEA1"/>
<stop offset="0.525" stop-color="#D1AF65"/>
<stop offset="1" stop-color="#E3CFA5"/>
</linearGradient>
</defs>
</svg>
