<svg xmlns="http://www.w3.org/2000/svg" width="110" height="29" viewBox="0 0 110 29" fill="none">
<path d="M39.2738 27.7234C39.1721 27.7234 39.1721 27.5093 39.1721 27.0925V26.5631L39.4887 26.4617C39.5904 26.4617 39.907 26.3603 40.2236 26.3603C40.9585 26.2589 41.3881 25.8308 41.7047 24.986C41.9195 24.3551 42.0213 22.2485 42.0213 18.0241C42.0213 12.8647 41.9195 11.7044 41.3881 10.9609C41.0715 10.5441 40.8567 10.4315 40.2236 10.3301C39.907 10.2287 39.4887 10.2287 39.4887 10.2287C39.3869 10.2287 39.2738 10.1273 39.2738 9.81189C39.2738 9.53402 39.3454 9.35753 39.4887 9.28243C39.7035 9.18105 47.4257 7.59267 47.7422 7.59267H47.9571V8.75297C47.9571 9.38382 47.8553 10.3301 47.8553 10.7582V11.603L48.1719 11.0736C49.0199 9.49647 50.0713 8.43755 51.4507 7.8067C52.1856 7.49128 52.717 7.3899 53.565 7.3899C54.6278 7.3899 55.6793 7.70532 55.6793 8.12213C55.6793 8.33616 53.7798 13.3942 53.6667 13.3942C53.6667 13.3942 53.2484 13.2928 52.8188 13.0788C51.9708 12.662 51.2359 12.4479 50.3879 12.4479C49.4382 12.4479 48.3754 12.7633 47.9571 13.2928C47.8138 13.4355 47.7422 14.4531 47.7422 16.3456C47.7422 19.1957 47.7422 22.6654 47.9571 24.0397C48.0588 25.2 48.3754 25.8308 49.0199 26.0449C49.2347 26.1463 50.6027 26.3603 51.0324 26.3603V27.622H45.2096C41.9308 27.836 39.2851 27.7234 39.2851 27.7234M0.775909 27.7234C0.674152 27.7234 0.674148 27.5093 0.674148 27.1939C0.674148 26.7734 1.06233 26.4917 1.83869 26.349C2.78842 26.135 3.105 26.0336 3.53464 25.4028C4.38261 24.3438 4.48437 22.2373 4.48437 13.811C4.48437 5.38471 4.38261 4.11176 3.53464 2.95145C3.11631 2.42199 2.47185 2.10657 1.42037 2.00519L0.572395 1.9038V0.630847H22.5744V0.946269C22.5744 1.16031 22.6762 2.8388 22.6762 4.84399V8.42628L22.1448 8.64032C21.5795 8.78301 21.1913 8.53894 20.9802 7.90809C20.0305 5.4861 18.9677 4.11176 17.5997 3.37953C16.6499 2.85007 16.1185 2.85007 13.3711 2.85007H11.042V3.26688C10.9403 3.99911 10.8272 8.95574 10.8272 11.2764V13.597H11.5621C11.9804 13.597 12.7267 13.597 13.2581 13.4956C14.106 13.4956 14.3208 13.3942 14.7392 13.2815C15.5871 12.8647 16.2203 12.0198 16.5369 10.5441L16.7517 9.81189H18.018V19.1957H16.7517L16.5369 18.4635C16.2203 17.0891 15.5871 16.0415 14.7392 15.7261C14.3208 15.512 13.4729 15.512 11.6752 15.4106H10.8272V17.2018C10.8272 19.0943 10.929 21.7304 11.042 23.1047C11.2568 25.1099 11.7769 26.1575 12.6249 26.5856C12.8397 26.687 13.3598 26.7996 13.7894 26.901C14.2191 27.0024 14.7392 27.1151 14.8522 27.1151C15.0671 27.2164 15.0671 28.2754 14.8522 28.2754C14.7505 27.8586 0.990722 27.8586 0.787209 27.7459M99.1633 28.2754C97.7839 28.174 95.5679 27.6445 94.8216 27.3291L94.5051 27.2277V25.4366C94.5051 24.4903 94.4033 23.116 94.4033 22.4851V21.3248L94.6181 21.2234C94.7199 21.122 94.9347 21.122 95.1495 21.122H95.4661L95.7827 21.7529C96.8455 24.2875 98.1118 25.7633 99.6947 26.1801C100.328 26.3941 101.492 26.3941 101.911 26.1801C103.177 25.7633 103.923 24.8057 103.923 23.4426C103.923 21.8655 103.075 21.122 99.7964 19.8603C97.7839 19.1281 97.049 18.7 96.3028 17.8552C95.353 16.9089 94.9234 15.85 94.9234 14.4869C94.8216 12.6958 95.3417 11.22 96.6193 9.95834C97.8856 8.69665 99.4798 7.95315 101.594 7.85177C103.494 7.63773 106.456 8.0658 108.05 8.69665L108.367 8.79803V10.3751C108.367 11.22 108.468 12.3803 108.468 13.0112V14.0701L108.05 14.1715C107.628 14.3142 107.311 14.1039 107.1 13.5406C106.151 11.1186 105.088 9.95834 103.403 9.53026C102.34 9.31623 101.504 9.53026 100.859 10.1611C100.328 10.6906 100.226 11.1074 100.124 11.9523C100.124 12.7971 100.226 13.2139 100.757 13.8448C101.391 14.577 102.453 15.1065 104.455 15.9514C106.999 17.0103 108.152 17.8439 108.898 19.2182C109.316 20.0631 109.429 20.694 109.429 22.0683C109.429 23.0146 109.328 23.2286 109.113 23.8595C108.378 25.966 106.784 27.4417 104.251 28.0726C103.403 28.2866 103.301 28.2866 101.605 28.2866C100.339 28.2866 99.3894 28.2866 99.1746 28.2866L99.1633 28.2754ZM86.048 15.5233H87.4273V14.577C87.2125 11.2088 86.4776 9.30496 85.0982 9.30496C83.6171 9.30496 82.4526 11.1975 81.9212 14.363C81.8194 14.7798 81.8194 15.2079 81.8194 15.4219V15.7373H83.3005C84.0354 15.5233 85.313 15.5233 86.048 15.5233ZM83.6171 28.174C79.7051 27.4417 76.9577 24.6931 76.1097 20.694C76.008 20.1645 75.8949 19.635 75.8949 18.486C75.8949 16.6949 75.9967 15.6359 76.4263 14.2729C77.2743 11.6368 78.8572 9.7443 81.1863 8.68538C83.6171 7.52508 86.8959 7.42369 89.0102 8.47134C91.4411 9.63165 92.8204 12.0536 93.2388 15.5346C93.2388 15.9514 93.3405 16.5935 93.3405 16.7962V17.2131H81.7063V17.8439C81.7063 19.421 82.1247 20.7953 82.7691 22.057C83.0857 22.5865 83.3005 22.9019 83.8319 23.4314C85.0982 24.6931 86.3758 25.2225 88.2753 25.2225C89.6547 25.2225 90.7062 24.9071 91.769 24.2763C92.0855 24.0622 92.4021 23.9608 92.4021 23.9608C92.6169 23.9608 92.9335 24.4903 92.9335 24.6931C92.9335 25.0085 91.7689 26.1688 90.7175 26.901C89.8695 27.5319 88.3884 28.0613 87.2238 28.2754C86.3758 28.2754 84.4764 28.2754 83.6284 28.174M64.272 26.6983C64.8034 26.5969 65.3348 26.3828 65.7532 25.966C66.9177 24.9071 67.8674 22.6991 68.184 19.9617C68.2858 18.9028 68.2858 16.3794 68.184 15.4332C67.7657 12.8985 66.8046 11.3214 65.5383 10.5892C65.0069 10.2738 64.9052 10.2738 64.272 10.2738C63.8537 10.2738 63.4241 10.2738 63.0057 10.3751L62.4743 10.4765V13.3266C62.4743 17.0103 62.5761 26.0787 62.6892 26.2927C62.757 26.4354 62.8964 26.5067 63.1075 26.5067C63.7406 26.7208 63.9555 26.7208 64.272 26.7208M61.208 28.1965C60.4731 28.0951 58.031 27.7797 57.2961 27.5657L56.7647 27.4643V24.4114C56.8664 17.1342 56.8664 13.1351 56.7647 9.23737C56.6629 5.44104 56.6629 5.02423 56.5498 4.49477C56.335 3.76254 56.1315 3.33447 55.8149 3.01904C55.7132 2.91766 55.3966 2.80501 55.08 2.70362C54.4469 2.56093 54.1303 2.35065 54.1303 2.07278C54.1303 1.85874 54.1303 1.65597 54.232 1.65597C54.3338 1.55458 62.2708 0.0788574 62.5874 0.0788574C62.6892 0.0788574 62.6892 1.13778 62.5874 4.60742V9.13599C62.5874 9.13599 62.904 9.0346 63.2206 8.82056C64.2834 8.40376 65.12 8.18972 66.4994 8.08833C67.3474 8.08833 67.7657 8.08833 68.2971 8.18972C71.2593 8.82056 73.4754 11.2426 74.3233 14.8249C74.5382 15.7711 74.6399 18.0917 74.4251 19.252C74.3233 20.1983 74.0068 21.5726 73.6902 22.4175C72.4239 25.6844 69.6651 27.791 65.968 28.3204C65.0183 28.3204 62.3726 28.3204 61.208 28.219V28.1965ZM30.5341 26.7208C31.0655 26.5067 31.8004 25.8759 32.117 25.2451C32.8519 23.7693 33.1797 21.6628 33.1797 18.3959C33.1797 14.1827 32.5466 11.5467 31.1672 10.071C30.5341 9.44014 30.2175 9.33876 29.3695 9.33876C27.6736 9.33876 26.6221 11.0285 26.1924 14.4982C25.9776 16.0753 25.9776 19.7702 26.1924 21.1333C26.8256 25.3464 28.4085 27.3516 30.5341 26.7208ZM27.6736 28.1965C25.7741 27.8811 24.0782 27.1376 22.9136 25.8759C21.8508 24.817 21.2177 23.6679 20.6976 22.0796C19.9627 19.6576 19.9627 16.4921 20.6976 14.0701C21.4325 11.7495 23.1284 9.7443 25.2427 8.69665C28.1032 7.22092 32.23 7.32231 34.9774 8.91068C37.4083 10.285 38.8894 12.8084 39.3191 16.2893C39.4208 17.3482 39.3191 19.5562 39.2173 20.5025C38.3693 24.2988 36.0402 26.9348 32.6596 27.8811C32.3431 27.9825 31.7099 28.0951 31.3933 28.1965C30.5454 28.2979 28.4311 28.2979 27.6962 28.1965" fill="white"/>
</svg>