<svg width="167" height="59" viewBox="0 0 167 59" fill="none" xmlns="http://www.w3.org/2000/svg">
<g clip-path="url(#clip0_10_66)">
<path d="M37.9813 9.13154H38.1121C40.1979 9.13154 41.9038 7.43178 41.9038 5.33977C41.9038 3.24776 40.2041 1.55422 38.1183 1.55422H37.9751C35.8831 1.55422 34.1896 3.24775 34.1896 5.34599C34.1896 7.438 35.8893 9.13776 37.9876 9.13776L37.9813 9.13154ZM38.056 2.06477C39.5877 2.06477 40.6212 3.4719 40.6337 5.34599C40.6337 7.45046 39.4569 8.60853 38.0623 8.61476C36.6676 8.61476 35.5157 7.47536 35.5095 5.34599C35.5095 3.47812 36.5119 2.07722 38.056 2.06477ZM81.6521 2.55042V8.16024L80.8613 8.7206V8.80155H86.4089V7.28857H86.3342L85.6618 8.21628H82.8413V5.4892C83.358 5.47052 84.0865 5.47052 85.0142 5.46429L85.5434 6.26125H85.6182V4.11943H85.5434L85.0018 4.92261C83.7752 4.92261 83.053 4.92261 82.8164 4.90393C82.8164 4.06962 82.8164 3.26021 82.8164 2.50683C83.6693 2.46948 84.6095 2.46325 85.6119 2.48816L86.191 3.25398H86.2657V1.91534H80.8551V1.98383L81.6458 2.54419L81.6521 2.55042ZM45.129 2.54419V8.16647L44.3445 8.72683V8.80155H45.129H46.3182H47.0965V8.72683L46.3182 8.1727V5.45184H50.054V8.16647L49.2632 8.72683V8.80155H50.054H51.2494H52.0339V8.72683L51.2494 8.16647V2.55042L52.0401 1.98383V1.90912H51.2556H50.054H49.2695V1.98383L50.054 2.55042V4.8728L46.3245 4.87903V2.54419L47.109 1.97761V1.90289H46.3245H45.129L44.3445 1.90912V1.98383L45.129 2.53797V2.54419ZM65.5884 8.06063L64.7852 8.7206V8.79532H67.145V8.71438L66.2546 8.0544C66.2048 6.42936 66.1737 4.83544 66.1737 3.27266L70.2518 8.38439C70.3764 8.54004 70.532 8.72061 70.532 8.83268H71.4784C71.3539 7.08311 71.3539 5.02845 71.4224 2.65626L72.2256 1.97138L72.2131 1.89044L69.8596 1.90289V1.97138L70.7811 2.65004C70.8122 3.93887 70.8309 5.47674 70.8309 7.19518C68.6019 4.2564 67.0889 2.58155 66.6593 1.89666H64.6233V1.97138L65.576 2.62513C65.6569 4.84167 65.6631 6.6535 65.576 8.04195L65.5884 8.06063ZM126.487 8.71438V8.79532H128.996V8.7206L128.455 8.18515C127.203 6.88387 126.132 5.74447 125.248 4.78563C126.487 3.62133 127.353 2.84928 127.763 2.52551L128.809 1.97761V1.90289H126.487V1.97761L126.83 2.50683C125.864 3.46567 124.806 4.45564 123.99 5.14675L126.773 8.17892L126.487 8.71438ZM124.003 8.79532H124.825V8.7206L123.997 8.16647V5.15298V2.55042L124.794 1.99006V1.91534H123.997H122.807H122.004V1.99006L122.807 2.55042V8.16647L121.973 8.72683V8.80155H122.807H124.003V8.79532ZM132.078 8.16647L131.294 8.71438V8.78909H136.848V7.27612H136.767L136.094 8.22251L133.274 8.21006V5.48297C133.797 5.45806 134.519 5.45806 135.44 5.45184L135.976 6.2488H136.057V4.10697H135.982L135.453 4.91016C134.214 4.91016 133.492 4.91016 133.261 4.89148C133.261 4.06962 133.261 3.26021 133.255 2.50683C134.114 2.46325 135.048 2.4508 136.063 2.48193L136.642 3.24153H136.711V1.89666H131.294V1.97761L132.078 2.53797V8.16024V8.16647ZM92.3798 0.900468C93.6811 5.016 94.5154 7.6746 94.8268 8.89494H95.6735C96.2276 6.95236 96.9374 4.56771 97.7967 1.72856C98.6745 4.60507 99.4342 6.98349 99.9572 8.88871H100.86C101.395 6.92123 102.205 4.2564 103.288 0.900468L103.979 0.246715V0.172H101.769V0.246715L102.585 0.869337L100.723 7.21386C100.611 6.70331 99.9073 4.34357 98.8738 0.9316L99.6334 0.259167V0.172L96.6697 0.178226V0.246715L97.4355 0.894242L95.5801 7.15782L93.7434 0.888016L94.5528 0.252941V0.172H91.7012V0.252941L92.3861 0.906695L92.3798 0.900468ZM96.1716 21.2664C95.0322 22.0945 94.4034 23.4332 94.4034 25.1392V44.758C94.4034 48.2073 91.8132 49.3592 91.8132 49.3592L91.8631 49.5148C94.7645 48.8362 96.6448 46.4889 96.6448 43.6622V31.079C97.641 30.3318 100.044 28.5387 100.424 28.2274C101.483 27.3495 102.348 26.3221 102.348 24.9088C102.348 22.8355 100.399 20.0523 100.069 18.4397C98.9734 19.2367 96.6012 20.9551 96.1716 21.2727V21.2664ZM96.6386 30.3816V22.9787C96.6386 21.64 96.981 21.1295 96.981 21.1295C96.981 21.1295 99.1602 24.3048 99.1602 26.4965C99.1602 27.8413 98.7119 28.8375 96.6323 30.3816H96.6386ZM114.377 8.79532H119.676V7.2699H119.582L118.935 8.19138C117.957 8.19138 117.098 8.19138 116.401 8.16024V2.53797L117.272 1.98383V1.90912H116.407H115.18H114.39V1.97761L115.174 2.54419V8.15402L114.396 8.71438V8.79532H114.377ZM106.962 8.7206L106.078 8.07308L106.781 6.23012C107.734 6.21144 108.618 6.22389 109.458 6.23012L110.174 8.07308L109.29 8.71438L109.278 8.78909H112.291V8.71438L111.501 8.06063L108.935 1.75346H107.889L105.393 8.07308L104.614 8.71438V8.78909H106.955V8.71438L106.962 8.7206ZM108.107 2.74343L109.259 5.70711H106.98L108.107 2.74343ZM117.696 51.6504C117.341 51.2955 116.575 50.262 116.575 48.0019C116.575 48.0019 116.575 40.96 116.575 37.4422C116.575 33.4325 114.371 31.8697 113.954 30.8611C111.507 32.978 108.431 36.06 105.965 36.06C104.502 36.06 103.562 35.1447 103.562 33.7936C103.562 33.4138 103.656 33.0776 103.736 32.8535C103.78 33.7936 104.49 34.603 105.492 34.603C106.495 34.603 107.304 33.7874 107.304 32.7725C107.304 31.7576 106.501 30.942 105.449 30.942C104.396 30.942 102.977 32.0005 102.977 33.8434C102.977 35.1758 103.911 36.6265 105.916 36.639C105.536 37.9652 105.754 39.9638 106.937 41.3273C107.03 41.4394 107.142 41.5453 107.254 41.6573C106.401 42.255 102.653 45.0755 102.653 48.749C102.653 49.8075 102.94 50.7289 103.35 51.5134C100.194 53.7424 96.6137 50.3056 91.9565 50.3056C90.954 50.3056 90.0076 50.4052 89.1297 50.5857C90.9229 49.3903 92.6413 47.4726 92.6413 43.9797V27.3495C92.6413 24.3733 93.6936 23.3647 94.1232 22.9538L94.0173 22.8105C94.0173 22.8105 92.6289 23.8192 91.7634 24.448C89.8333 25.8552 87.5919 27.8849 87.5919 31.7514V48.3443C87.5919 49.1412 87.6728 50.7289 85.78 51.8372C83.8873 52.9455 82.7665 54.5269 82.7665 56.1022C82.7665 57.4657 83.7565 58.2502 84.7465 58.2502C85.8921 58.2502 86.6019 57.3599 86.6019 56.4197C86.6019 55.4111 85.8236 54.5892 84.8461 54.5892C84.1861 54.5892 83.6631 54.9316 83.3456 55.4235C83.8001 53.9541 85.1574 52.4972 87.8285 52.4972C91.1284 52.4972 94.2477 55.4982 96.9935 55.4982C99.4342 55.4982 102.834 52.5781 103.581 51.9057C104.789 53.8483 106.756 54.8258 106.756 54.8258L111.936 51.0652C112.422 53.07 113.561 54.0911 114.296 54.8258L119.744 50.8659L119.402 50.3927L117.696 51.6317V51.6504ZM106.551 36.5954C108.157 36.3277 109.838 35.1136 110.648 34.4598C111.102 34.9143 111.7 35.8109 111.7 37.8407V42.2052C109.819 42.4792 108.331 42.0496 107.379 40.9538C106.264 39.6712 106.121 37.7597 106.544 36.6016L106.551 36.5954ZM110.149 51.6504C109.24 51.1523 105.903 49.1039 105.903 45.7915C105.903 43.631 107.36 42.336 107.734 42.0371C108.412 42.5041 109.346 42.8652 110.641 42.8652C110.971 42.8652 111.326 42.8403 111.706 42.7843V48.9731C111.706 49.5086 111.743 49.9942 111.812 50.4363L110.149 51.6442V51.6504ZM127.458 35.2319V27.8538C127.458 24.7345 125.79 23.3958 125.323 22.437L119.371 26.7642L119.713 27.2374L121.624 25.8489C121.917 26.2101 122.583 27.2374 122.583 29.0492V46.6943C122.583 47.703 122.82 48.6307 123.193 49.465L121.089 50.9904L121.431 51.4636L123.455 49.9942C125.124 53.0949 128.616 54.8445 128.616 54.8445C131.051 52.7026 134.152 50.4674 136.935 48.7988V38.0897C136.935 34.1361 134.139 32.2059 133.467 30.8673L127.458 35.2319ZM127.458 46.383C127.458 46.383 127.458 41.016 127.458 35.9541L129.93 34.161C130.547 34.7275 132.066 36.3215 132.066 38.3014V51.5944C131.007 51.034 127.458 48.9731 127.458 46.3893V46.383ZM77.0322 2.54419L77.8354 1.99006V1.90912H77.0322H75.8492H75.046L75.0585 1.99006L75.8492 2.55042V8.16024L75.0211 8.7206V8.80155H75.8554H77.0447H77.8727V8.72683L77.0447 8.16647V2.54419H77.0322ZM87.1062 28.246C87.1062 28.246 84.9208 30.0018 82.7354 30.0018C80.7679 30.0018 79.2985 28.7441 79.2985 27.144C79.2985 25.1952 81.2785 23.8815 83.0716 23.8815C85.4376 23.8815 86.3529 24.5103 88.6939 24.5103C91.035 24.5103 94.3162 21.9451 95.9039 20.7933L95.798 20.65C95.798 20.65 94.4345 21.584 92.5106 21.584C90.5867 21.584 89.0488 20.9116 86.4711 20.9116C83.4078 20.9116 78.7133 23.6635 78.7133 27.0133C78.7133 28.7753 80.2698 30.3567 82.6296 30.3567C84.9893 30.3567 87.2681 28.464 87.2681 28.464L87.1062 28.2398V28.246ZM166.123 50.4114L164.417 51.6504C164.062 51.2955 163.297 50.262 163.297 48.0019V27.8476C163.297 27.611 163.284 27.3806 163.265 27.1627L165.345 25.6559L165.003 25.1827L163.184 26.5027C162.798 24.3173 161.553 23.2402 161.161 22.4307L155.209 26.758L155.551 27.2312L157.463 25.8427C157.755 26.2038 158.421 27.2312 158.421 29.043V48.9794C158.421 49.4961 158.465 49.9693 158.533 50.3989L156.329 51.9991L156.672 52.4723L158.658 51.0278C159.169 53.0389 160.376 54.0475 161.012 54.8382L166.459 50.8784L166.117 50.4052L166.123 50.4114ZM153.882 38.2205C153.882 35.4311 150.147 31.7825 149.96 30.8611L141.424 37.0624C141.424 37.0624 141.642 37.9652 141.635 39.5778V46.6881C141.635 47.6968 141.872 48.6245 142.246 49.4588L140.141 50.9842L140.484 51.4574L142.507 49.988C144.176 53.0887 147.669 54.8382 147.669 54.8382L153.783 50.3927L153.415 49.8884L151.155 51.5321C150.165 51.0776 146.61 49.2595 146.511 46.7068C147.557 45.9472 148.572 45.2063 149.138 44.7829C152.326 42.4107 153.87 40.4557 153.87 38.2205H153.882ZM147.793 45.0195C147.525 45.2187 147.059 45.5612 146.517 45.9596V33.8247C146.984 34.5532 150.327 38.3823 150.327 41.0223C150.327 42.5165 149.337 43.8552 147.793 45.0133V45.0195ZM141.704 8.78909H142.538L142.545 8.71438L141.748 8.1727L141.723 5.76938C142.059 5.74447 142.352 5.7507 142.482 5.7507C142.775 5.74447 142.924 5.84409 143.055 6.06823L144.686 8.78287H146.262L146.274 8.70815C146.143 8.61476 145.683 8.1727 145.527 7.92365L144.444 6.21766C144.207 5.82541 143.927 5.60749 143.46 5.55146C144.724 5.52655 145.72 4.77941 145.726 3.73963C145.726 2.65626 144.618 1.89044 142.968 1.89044H141.922H141.305H139.774V1.97138L140.565 2.54419V8.14779L139.724 8.70193V8.77664H140.558H141.716L141.704 8.78909ZM141.748 2.4508C142.146 2.43212 142.669 2.41344 142.831 2.41967C143.777 2.40721 144.356 3.04852 144.35 3.78944C144.35 4.76073 143.703 5.30241 142.507 5.30241C142.333 5.30241 141.959 5.30241 141.729 5.28996L141.748 2.45702V2.4508ZM30.8897 8.21006L30.9021 0.900468L31.8547 0.22181V0.140869H28.5237V0.215584L29.6071 0.900468V9.13154C29.6071 11.1613 28.3929 11.7279 27.7454 11.7279C27.652 11.7279 27.5586 11.7154 27.5586 11.7154C27.5586 11.7154 27.7392 11.5535 27.733 11.2235C27.733 10.8998 27.459 10.6507 27.1166 10.6507C26.8115 10.6507 26.4504 10.9185 26.4504 11.3854C26.4628 11.896 26.9609 12.2384 27.5649 12.2322C29.5199 12.2322 30.8959 9.78529 30.8897 8.21006ZM76.3909 38.2205C76.3909 35.4311 72.6552 31.7825 72.4684 30.8611L63.9322 37.0624C63.9322 37.0624 64.1501 37.9652 64.1439 39.5778V46.6881C64.1439 47.6968 64.3805 48.6245 64.7541 49.4588L62.6496 50.9842L62.9921 51.4574L65.0156 49.988C66.6842 53.0887 70.1771 54.8382 70.1771 54.8382L76.2913 50.3927L75.9239 49.8884L73.6638 51.5321C72.6738 51.0776 69.1187 49.2595 69.0191 46.7068C70.0651 45.9472 71.0799 45.2063 71.6465 44.7829C74.8343 42.4107 76.3784 40.4557 76.3784 38.2205H76.3909ZM70.2954 45.0195C70.0277 45.2187 69.5607 45.5612 69.0191 45.9596V33.8247C69.486 34.5532 72.8295 38.3823 72.8295 41.0223C72.8295 42.5165 71.8395 43.8552 70.2954 45.0133V45.0195ZM20.2926 34.9206C21.0273 34.3913 21.6437 33.943 21.7807 33.8434C22.6586 33.2083 25.8776 30.9669 25.8776 27.8476C25.8776 24.448 22.2352 20.345 21.7247 18.4335C21.7247 18.4335 17.8333 21.2602 17.2729 21.6712C16.1335 22.4992 15.5047 23.8379 15.5047 25.5439V44.3159C15.5047 47.8649 12.9083 48.8922 12.9083 48.8922L12.9581 49.0479C15.872 48.4252 17.7461 46.0468 17.7461 43.2201V36.7697C18.1446 36.4833 18.761 36.035 19.3961 35.5743V50.8535C18.1197 50.2059 16.4075 49.658 14.2656 49.658C12.8212 49.658 11.5012 49.8946 10.3307 50.2931C12.0865 48.8984 13.7551 46.9372 13.7551 44.3969V27.7666C13.7551 24.7905 14.8073 23.7818 15.2369 23.3709L15.1311 23.2277C15.1311 23.2277 13.7426 24.2364 12.8772 24.8652C10.9471 26.2723 8.70563 28.3021 8.70563 32.1686V48.7614C8.70563 50.6978 8.20753 51.0776 6.8938 52.2544C5.58006 53.4249 4.83914 54.8382 4.83914 56.1146C4.83914 57.4782 5.82911 58.2627 6.81908 58.2627C7.96471 58.2627 8.67449 57.3723 8.67449 56.4322C8.67449 55.4235 7.89622 54.6017 6.9187 54.6017C6.27117 54.6017 5.7544 54.9316 5.43063 55.4111C5.94741 53.7736 7.52887 51.9057 10.6171 51.9057C15.5856 51.9057 19.284 56.1022 19.284 56.1022C22.2228 52.491 26.743 50.6667 26.743 50.6667V41.5826C26.743 36.3401 22.6399 35.1136 20.2926 34.933V34.9206ZM19.3089 34.933C18.8295 35.2817 18.1695 35.7611 17.7399 36.0724V23.3896C17.7399 22.051 18.0823 21.5404 18.0823 21.5404C18.0823 21.5404 21.9301 26.8638 21.9301 30.0392C21.9301 31.9818 21.295 33.4948 19.3027 34.933H19.3089ZM20 51.1835V35.4249C21.4756 35.6926 22.1356 36.7386 22.1356 38.8867C22.1356 42.1305 22.1356 52.8957 22.1356 52.8957C22.1356 52.8957 21.4133 52.024 20 51.1835ZM38.0249 51.6504C37.67 51.2955 36.9042 50.262 36.9042 48.0019V27.8476C36.9042 27.611 36.8917 27.3806 36.8731 27.1627L38.9526 25.6559L38.6102 25.1827L36.7921 26.5027C36.4061 24.3173 35.1608 23.2402 34.7686 22.4307L28.8163 26.758L29.1588 27.2312L31.0702 25.8427C31.3629 26.2038 32.0291 27.2312 32.0291 29.043V48.9794C32.0291 49.4961 32.0726 49.9693 32.1411 50.3989L29.937 51.9991L30.2795 52.4723L32.2657 51.0278C32.7762 53.0389 33.9841 54.0475 34.6192 54.8382L40.0671 50.8784L39.7247 50.4052L38.0187 51.6442L38.0249 51.6504ZM8.35073 28.5449C7.61604 29.0492 6.00345 30.0018 4.39085 30.0018C2.37978 30.0018 0.953978 28.7566 0.953978 27.1565C0.953978 25.1516 2.93392 23.8877 4.72707 23.8877C7.09303 23.8877 8.00829 24.5165 10.3493 24.5165C12.6904 24.5165 15.9716 21.9513 17.5593 20.7995L17.4535 20.6563C17.4535 20.6563 16.0899 21.5902 14.166 21.5902C12.2421 21.5902 10.7042 20.9178 8.12659 20.9178C5.06329 20.9178 0.368713 23.6698 0.368713 27.0195C0.368713 28.7815 1.92527 30.363 4.28501 30.363C6.05948 30.363 7.76547 29.3107 8.51884 28.7753L8.35073 28.5449ZM62.2511 1.98383V1.90912H59.8914V1.99006L60.8067 2.66872C60.8316 3.96377 60.8502 5.48919 60.8502 7.21386C58.615 4.26886 57.1083 2.594 56.6849 1.90912H54.6427V1.98383L55.6015 2.64381C55.6763 4.86657 55.6825 6.66595 55.6015 8.06685L54.8046 8.72683V8.80155H57.1581V8.72683L56.2677 8.06685C56.2179 6.44181 56.1868 4.85412 56.1993 3.27889L60.2712 8.40307C60.3957 8.5525 60.5576 8.73306 60.5514 8.85758H61.504C61.3795 7.09556 61.3732 5.04713 61.448 2.67494L62.2574 1.99006L62.2511 1.98383ZM59.0135 51.6504C58.6586 51.2955 57.8928 50.262 57.8928 48.0019V36.5705C57.8928 36.3339 57.8803 36.1035 57.8617 35.8856L59.9412 34.3789L59.5988 33.9057L57.7807 35.2256C57.3947 33.0402 56.1494 31.9631 55.7572 31.1537L50.1162 35.2568L50.4587 35.73L52.1273 34.5159C52.4199 34.8147 53.0177 35.5743 53.0177 36.7884V48.9794C53.0177 49.3343 53.0363 49.6705 53.0675 49.988L50.7264 51.6878C50.0789 51.3391 48.292 50.1624 48.292 47.759V36.5705C48.292 33.4512 46.6233 32.1125 46.1564 31.1537L40.5154 35.2568L40.8578 35.73L42.5265 34.5159C42.8191 34.8147 43.4168 35.5743 43.4168 36.7884V47.2921C43.4168 52.877 47.3829 54.832 47.3829 54.832L53.1546 50.6418C53.5718 52.933 54.817 54.0475 55.6078 54.832L61.0557 50.8721L60.7133 50.3989L59.0073 51.638L59.0135 51.6504Z" fill="url(#paint0_linear_10_66)"/>
</g>
<defs>
<linearGradient id="paint0_linear_10_66" x1="1.92527" y1="61.2824" x2="157.68" y2="4.59263" gradientUnits="userSpaceOnUse">
<stop stop-color="#E6D4AF"/>
<stop offset="0.5" stop-color="#CEAB5D"/>
<stop offset="1" stop-color="#E6D4AF"/>
</linearGradient>
<clipPath id="clip0_10_66">
<rect width="166.103" height="58.1156" fill="white" transform="translate(0.368713 0.140869)"/>
</clipPath>
</defs>
</svg>
